<svg width="64" height="67" viewBox="0 0 64 67" fill="none" xmlns="http://www.w3.org/2000/svg">
<path d="M63.8785 31.9393C63.8785 49.5788 49.5788 63.8785 31.9393 63.8785C14.2997 63.8785 0 49.5788 0 31.9393C0 14.2997 14.2997 0 31.9393 0C49.5788 0 63.8785 14.2997 63.8785 31.9393Z" fill="#252525"/>
<path d="M43 23C43 29.0751 38.0751 34 32 34C25.9249 34 21 29.0751 21 23C21 16.9249 25.9249 12 32 12C38.0751 12 43 16.9249 43 23Z" fill="white"/>
<path d="M48 51.5C48 49.4645 47.5732 47.449 46.744 45.5684C45.9148 43.6879 44.6994 41.9792 43.1673 40.5398C41.6351 39.1005 39.8161 37.9588 37.8143 37.1799C35.8124 36.4009 33.6668 36 31.5 36C29.3332 36 27.1876 36.4009 25.1857 37.1799C23.1839 37.9588 21.3649 39.1005 19.8327 40.5398C18.3006 41.9792 17.0852 43.6879 16.256 45.5684C15.4268 47.449 15 49.4645 15 51.5L31.5 51.5H48Z" fill="white"/>
</svg>
